<svg xmlns="http://www.w3.org/2000/svg" xmlns:xlink="http://www.w3.org/1999/xlink" width="3000" zoomAndPan="magnify" viewBox="0 0 2250 2250.000011" height="3000" preserveAspectRatio="xMidYMid meet" version="1.0"><defs><g/><clipPath id="b65596a99e"><path d="M 0.5 34.199219 L 2249.5 34.199219 L 2249.5 2214.800781 L 0.5 2214.800781 Z M 0.5 34.199219 " clip-rule="nonzero"/></clipPath><clipPath id="bac2c822b3"><path d="M 0.5 0.199219 L 2249.5 0.199219 L 2249.5 2180.800781 L 0.5 2180.800781 Z M 0.5 0.199219 " clip-rule="nonzero"/></clipPath><clipPath id="51af8c57d9"><rect x="0" width="2250" y="0" height="2181"/></clipPath><clipPath id="f0dde1b353"><rect x="0" width="719" y="0" height="1177"/></clipPath><clipPath id="99935c5d9a"><path d="M 1724 1609.609375 L 1930 1609.609375 L 1930 1660 L 1724 1660 Z M 1724 1609.609375 " clip-rule="nonzero"/></clipPath><clipPath id="c66477cb8f"><path d="M 1127 1609.609375 L 1334 1609.609375 L 1334 1660 L 1127 1660 Z M 1127 1609.609375 " clip-rule="nonzero"/></clipPath><clipPath id="df0912078d"><path d="M 1693 1662 L 1867 1662 L 1867 1738.554688 L 1693 1738.554688 Z M 1693 1662 " clip-rule="nonzero"/></clipPath><clipPath id="7923151496"><path d="M 1191 1662 L 1365 1662 L 1365 1738.554688 L 1191 1738.554688 Z M 1191 1662 " clip-rule="nonzero"/></clipPath><clipPath id="6e2f789605"><rect x="0" width="648" y="0" height="1178"/></clipPath><clipPath id="45e6f24521"><rect x="0" width="424" y="0" height="1205"/></clipPath></defs><g clip-path="url(#b65596a99e)"><g transform="matrix(1, 0, 0, 1, 0.000000000000000056, 34)"><g clip-path="url(#51af8c57d9)"><g clip-path="url(#bac2c822b3)"><path fill="#ffffff" d="M 0.5 0.199219 L 2249.242188 0.199219 L 2249.242188 2180.800781 L 0.5 2180.800781 Z M 0.5 0.199219 " fill-opacity="1" fill-rule="nonzero"/></g></g></g></g><g transform="matrix(1, 0, 0, 1, 1222, 1038)"><g clip-path="url(#f0dde1b353)"><g fill="#000000" fill-opacity="1"><g transform="translate(2.353125, 929.925129)"><g><path d="M 564.78125 -590.28125 C 554.976562 -526.875 547.625 -479.15625 542.71875 -447.125 C 537.820312 -415.09375 534.390625 -393.847656 532.421875 -383.390625 L 531.453125 -375.546875 L 564.78125 -356.90625 C 570.007812 -352.988281 572.625 -348.414062 572.625 -343.1875 C 572.625 -337.300781 570.007812 -332.398438 564.78125 -328.484375 L 518.703125 -302 L 515.765625 -284.359375 C 513.148438 -269.316406 508.410156 -240.390625 501.546875 -197.578125 C 494.679688 -154.765625 486.671875 -102.632812 477.515625 -41.1875 C 477.515625 -38.570312 477.1875 -36.609375 476.53125 -35.296875 L 476.53125 -29.421875 C 474.570312 -17.648438 471.46875 -9.800781 467.21875 -5.875 C 462.96875 -1.957031 455.289062 0.328125 444.1875 0.984375 C 433.71875 0.984375 422.925781 0.984375 411.8125 0.984375 C 400.707031 0.984375 389.597656 0.65625 378.484375 0 C 364.753906 -0.65625 356.910156 -7.847656 354.953125 -21.578125 C 352.992188 -42.492188 349.070312 -69.289062 343.1875 -101.96875 C 339.914062 -121.582031 337.132812 -137.925781 334.84375 -151 C 332.5625 -164.070312 330.765625 -174.53125 329.453125 -182.375 C 328.148438 -193.488281 326.515625 -203.457031 324.546875 -212.28125 C 322.585938 -221.101562 320.628906 -228.785156 318.671875 -235.328125 C 316.710938 -238.597656 313.929688 -240.394531 310.328125 -240.71875 C 306.734375 -241.039062 303.304688 -239.570312 300.046875 -236.3125 C 296.773438 -233.039062 293.503906 -223.234375 290.234375 -206.890625 C 285.003906 -167.015625 280.425781 -133.675781 276.5 -106.875 C 272.582031 -80.070312 269.644531 -60.132812 267.6875 -47.0625 C 265.726562 -32.03125 263.273438 -21.082031 260.328125 -14.21875 C 257.390625 -7.351562 252.320312 -3.101562 245.125 -1.46875 C 237.9375 0.164062 226.5 0.984375 210.8125 0.984375 C 196.4375 0.984375 182.546875 0.65625 169.140625 0 C 155.742188 -0.65625 147.738281 -8.171875 145.125 -22.546875 L 131.390625 -98.046875 C 128.117188 -116.359375 123.539062 -143.816406 117.65625 -180.421875 C 111.78125 -217.023438 105.242188 -257.550781 98.046875 -302 L 51.96875 -328.484375 C 46.738281 -331.742188 44.125 -336.644531 44.125 -343.1875 C 44.125 -349.070312 46.738281 -353.644531 51.96875 -356.90625 L 85.3125 -375.546875 C 76.8125 -431.765625 68.960938 -480.460938 61.765625 -521.640625 C 54.578125 -562.828125 47.71875 -602.375 41.1875 -640.28125 C 37.257812 -661.195312 37.910156 -674.429688 43.140625 -679.984375 C 48.367188 -685.546875 60.789062 -688.003906 80.40625 -687.359375 L 96.09375 -687.359375 L 96.09375 -686.375 C 119.625 -686.375 135.3125 -686.207031 143.15625 -685.875 C 151 -685.550781 155.898438 -678.523438 157.859375 -664.796875 L 174.53125 -565.765625 C 175.1875 -561.191406 176.332031 -553.019531 177.96875 -541.25 C 179.601562 -529.488281 181.398438 -517.394531 183.359375 -504.96875 C 185.316406 -492.550781 186.953125 -482.421875 188.265625 -474.578125 C 190.222656 -464.117188 194.472656 -457.910156 201.015625 -455.953125 C 204.273438 -455.296875 207.539062 -456.765625 210.8125 -460.359375 C 214.082031 -463.953125 216.046875 -468.691406 216.703125 -474.578125 C 218.003906 -481.765625 219.472656 -491.40625 221.109375 -503.5 C 222.742188 -515.59375 224.378906 -527.03125 226.015625 -537.8125 C 227.648438 -548.601562 228.46875 -555.632812 228.46875 -558.90625 C 232.382812 -585.050781 235.648438 -606.945312 238.265625 -624.59375 C 240.878906 -642.25 243.164062 -655.976562 245.125 -665.78125 C 247.09375 -679.507812 254.941406 -686.375 268.671875 -686.375 C 288.273438 -687.675781 312.457031 -687.675781 341.21875 -686.375 C 351.03125 -686.375 358.382812 -680.816406 363.28125 -669.703125 C 368.1875 -658.585938 371.457031 -647.472656 373.09375 -636.359375 C 374.726562 -625.253906 375.546875 -618.71875 375.546875 -616.75 C 376.847656 -608.90625 378.644531 -597.140625 380.9375 -581.453125 C 383.226562 -565.765625 385.679688 -549.75 388.296875 -533.40625 C 390.910156 -517.0625 392.867188 -503.988281 394.171875 -494.1875 C 394.171875 -488.957031 396.132812 -481.441406 400.0625 -471.640625 C 402.675781 -463.796875 407.25 -460.195312 413.78125 -460.84375 C 420.320312 -461.5 424.242188 -465.75 425.546875 -473.59375 C 428.816406 -493.863281 431.757812 -512.660156 434.375 -529.984375 C 436.988281 -547.304688 440.257812 -571 444.1875 -601.0625 C 445.488281 -612.175781 446.957031 -621.984375 448.59375 -630.484375 C 450.226562 -638.984375 451.695312 -646.5 453 -653.03125 C 455.613281 -668.070312 459.046875 -677.390625 463.296875 -680.984375 C 467.546875 -684.578125 477.515625 -686.703125 493.203125 -687.359375 C 504.316406 -687.359375 514.773438 -687.359375 524.578125 -687.359375 C 534.390625 -687.359375 543.546875 -687.03125 552.046875 -686.375 C 569.035156 -686.375 576.550781 -677.222656 574.59375 -658.921875 C 574.59375 -656.304688 573.773438 -649.273438 572.140625 -637.828125 C 570.503906 -626.390625 568.050781 -610.539062 564.78125 -590.28125 Z M 564.78125 -590.28125 "/></g></g></g></g></g><g clip-path="url(#99935c5d9a)"><path fill="#000000" d="M 1729.585938 1609.703125 C 1726.601562 1609.703125 1724.136719 1612.070312 1724.046875 1615.066406 C 1723.953125 1618.121094 1726.359375 1620.671875 1729.417969 1620.765625 C 1754.945312 1621.542969 1779.210938 1624.414062 1802.210938 1629.375 L 1802.234375 1629.378906 C 1834.503906 1636.191406 1853.109375 1640.265625 1858.050781 1641.609375 L 1922.820312 1659.699219 C 1923.320312 1659.839844 1923.820312 1659.90625 1924.316406 1659.90625 C 1926.742188 1659.90625 1928.96875 1658.304688 1929.652344 1655.859375 C 1930.476562 1652.917969 1928.753906 1649.863281 1925.808594 1649.039062 L 1861 1630.941406 L 1860.964844 1630.933594 C 1855.820312 1629.535156 1837.015625 1625.40625 1804.554688 1618.554688 C 1780.890625 1613.453125 1755.960938 1610.503906 1729.757812 1609.703125 C 1729.699219 1609.703125 1729.640625 1609.703125 1729.585938 1609.703125 Z M 1729.585938 1609.703125 " fill-opacity="1" fill-rule="nonzero"/></g><g clip-path="url(#c66477cb8f)"><path fill="#000000" d="M 1328.050781 1609.703125 C 1331.03125 1609.703125 1333.496094 1612.070312 1333.589844 1615.066406 C 1333.679688 1618.121094 1331.277344 1620.671875 1328.214844 1620.765625 C 1302.6875 1621.542969 1278.421875 1624.414062 1255.421875 1629.375 L 1255.398438 1629.378906 C 1223.128906 1636.191406 1204.523438 1640.265625 1199.582031 1641.609375 L 1199.585938 1641.609375 L 1134.8125 1659.699219 C 1134.316406 1659.839844 1133.8125 1659.90625 1133.316406 1659.90625 C 1130.894531 1659.90625 1128.667969 1658.304688 1127.980469 1655.859375 C 1127.15625 1652.917969 1128.878906 1649.863281 1131.828125 1649.039062 L 1196.632812 1630.941406 L 1196.667969 1630.933594 C 1201.8125 1629.535156 1220.617188 1625.40625 1253.078125 1618.554688 L 1253.082031 1618.554688 C 1276.742188 1613.453125 1301.671875 1610.503906 1327.878906 1609.703125 C 1327.933594 1609.703125 1327.992188 1609.703125 1328.050781 1609.703125 Z M 1328.050781 1609.703125 " fill-opacity="1" fill-rule="nonzero"/></g><g clip-path="url(#df0912078d)"><path fill="#000000" d="M 1698.621094 1662.480469 C 1695.742188 1662.480469 1693.3125 1664.699219 1693.097656 1667.605469 C 1692.871094 1670.65625 1695.164062 1673.308594 1698.21875 1673.53125 C 1703.246094 1673.902344 1710.476562 1675.582031 1719.914062 1678.566406 C 1755.480469 1690.46875 1774.730469 1697.144531 1777.664062 1698.597656 L 1777.65625 1698.597656 C 1778.035156 1698.835938 1778.441406 1699.027344 1778.867188 1699.171875 C 1787.929688 1702.171875 1814.457031 1715.101562 1858.449219 1737.96875 C 1859.269531 1738.390625 1860.144531 1738.59375 1861.003906 1738.59375 C 1863.007812 1738.59375 1864.941406 1737.507812 1865.929688 1735.613281 C 1867.34375 1732.902344 1866.285156 1729.5625 1863.570312 1728.152344 C 1819.980469 1705.496094 1793.117188 1692.40625 1782.984375 1688.878906 L 1782.972656 1688.878906 C 1782.925781 1688.851562 1782.875 1688.824219 1782.824219 1688.800781 C 1779.664062 1687.171875 1759.839844 1680.253906 1723.351562 1668.042969 L 1723.265625 1668.015625 C 1713 1664.769531 1704.925781 1662.929688 1699.035156 1662.496094 C 1698.894531 1662.484375 1698.757812 1662.480469 1698.621094 1662.480469 Z M 1698.621094 1662.480469 " fill-opacity="1" fill-rule="nonzero"/></g><g clip-path="url(#7923151496)"><path fill="#000000" d="M 1359.015625 1662.480469 C 1361.890625 1662.480469 1364.320312 1664.699219 1364.535156 1667.605469 C 1364.761719 1670.65625 1362.46875 1673.308594 1359.414062 1673.53125 C 1354.390625 1673.902344 1347.15625 1675.582031 1337.71875 1678.566406 L 1337.722656 1678.566406 C 1302.15625 1690.46875 1282.902344 1697.144531 1279.96875 1698.597656 L 1279.976562 1698.597656 C 1279.601562 1698.835938 1279.191406 1699.027344 1278.765625 1699.171875 C 1269.703125 1702.171875 1243.175781 1715.101562 1199.183594 1737.96875 C 1198.367188 1738.390625 1197.492188 1738.59375 1196.628906 1738.59375 C 1194.625 1738.59375 1192.695312 1737.507812 1191.707031 1735.613281 C 1190.292969 1732.902344 1191.347656 1729.5625 1194.0625 1728.152344 C 1237.652344 1705.496094 1264.515625 1692.40625 1274.648438 1688.878906 L 1274.660156 1688.878906 C 1274.710938 1688.851562 1274.757812 1688.824219 1274.808594 1688.800781 C 1277.972656 1687.171875 1297.796875 1680.253906 1334.28125 1668.042969 L 1334.371094 1668.015625 C 1344.632812 1664.769531 1352.710938 1662.929688 1358.601562 1662.496094 C 1358.738281 1662.484375 1358.875 1662.480469 1359.015625 1662.480469 Z M 1359.015625 1662.480469 " fill-opacity="1" fill-rule="nonzero"/></g><g transform="matrix(1, 0, 0, 1, 499, 84)"><g clip-path="url(#6e2f789605)"><g fill="#000000" fill-opacity="1"><g transform="translate(0.0757428, 930.948291)"><g><path d="M 410.84375 -19.609375 C 413.457031 -10.460938 409.863281 -4.582031 400.0625 -1.96875 C 392.21875 -1.3125 385.679688 -0.816406 380.453125 -0.484375 C 375.222656 -0.160156 365.085938 0 350.046875 0 L 322.59375 0 C 295.789062 1.957031 277.488281 -10.460938 267.6875 -37.265625 C 266.375 -41.835938 259.179688 -61.117188 246.109375 -95.109375 C 234.347656 -125.179688 225.035156 -148.878906 218.171875 -166.203125 C 211.304688 -183.523438 206.894531 -194.472656 204.9375 -199.046875 C 202.320312 -206.234375 199.539062 -212.441406 196.59375 -217.671875 C 193.65625 -222.898438 190.878906 -226.820312 188.265625 -229.4375 C 185.648438 -232.707031 182.21875 -234.34375 177.96875 -234.34375 C 173.71875 -234.34375 170.285156 -232.707031 167.671875 -229.4375 C 159.828125 -219.632812 155.90625 -206.238281 155.90625 -189.25 C 155.90625 -190.550781 155.90625 -183.03125 155.90625 -166.6875 C 155.90625 -150.34375 155.578125 -125.832031 154.921875 -93.15625 L 154.921875 -27.453125 C 154.265625 -17.648438 151.972656 -10.953125 148.046875 -7.359375 C 144.128906 -3.765625 137.597656 -1.3125 128.453125 0 C 119.296875 0 109.816406 0 100.015625 0 C 90.210938 0 80.734375 -0.328125 71.578125 -0.984375 C 56.546875 -0.984375 48.703125 -9.15625 48.046875 -25.5 C 47.390625 -28.757812 47.0625 -33.332031 47.0625 -39.21875 C 47.0625 -45.101562 47.0625 -52.296875 47.0625 -60.796875 L 47.0625 -306.90625 L 7.84375 -329.453125 C 2.613281 -333.378906 0 -337.957031 0 -343.1875 C 0 -349.070312 2.613281 -353.972656 7.84375 -357.890625 L 47.0625 -380.453125 L 47.0625 -631.46875 C 47.0625 -646.5 47.710938 -659.078125 49.015625 -669.203125 C 50.328125 -679.335938 56.867188 -684.734375 68.640625 -685.390625 C 90.210938 -686.046875 112.109375 -686.046875 134.328125 -685.390625 C 145.441406 -684.734375 151.648438 -679.828125 152.953125 -670.671875 C 154.265625 -661.523438 154.921875 -651.070312 154.921875 -639.3125 L 154.921875 -600.078125 C 154.921875 -585.046875 155.082031 -572.460938 155.40625 -562.328125 C 155.738281 -552.203125 157.210938 -541.910156 159.828125 -531.453125 C 161.128906 -526.867188 164.066406 -524.085938 168.640625 -523.109375 C 173.222656 -522.128906 177.472656 -522.945312 181.390625 -525.5625 C 187.273438 -530.132812 193.488281 -539.613281 200.03125 -554 C 203.300781 -559.226562 206.894531 -565.765625 210.8125 -573.609375 C 214.738281 -581.453125 218.988281 -590.273438 223.5625 -600.078125 C 229.445312 -611.191406 234.1875 -620.671875 237.78125 -628.515625 C 241.375 -636.359375 244.476562 -642.570312 247.09375 -647.15625 C 252.976562 -657.613281 258.046875 -666.4375 262.296875 -673.625 C 266.546875 -680.8125 272.914062 -684.734375 281.40625 -685.390625 C 318.019531 -688.660156 350.050781 -688.660156 377.5 -685.390625 C 380.769531 -684.734375 383.222656 -682.9375 384.859375 -680 C 386.492188 -677.0625 386.65625 -673.957031 385.34375 -670.6875 C 384.039062 -666.757812 382.242188 -662.507812 379.953125 -657.9375 C 377.671875 -653.363281 375.222656 -648.460938 372.609375 -643.234375 C 366.066406 -630.160156 354.785156 -607.769531 338.765625 -576.0625 C 322.753906 -544.351562 302.328125 -503.332031 277.484375 -453 C 272.910156 -443.851562 269.476562 -437.316406 267.1875 -433.390625 C 264.90625 -429.472656 264.09375 -428.164062 264.75 -429.46875 C 256.90625 -414.4375 256.578125 -399.40625 263.765625 -384.375 C 267.035156 -376.53125 270.957031 -367.703125 275.53125 -357.890625 C 280.101562 -348.085938 284.675781 -336.976562 289.25 -324.5625 C 306.90625 -280.757812 325.046875 -235.648438 343.671875 -189.234375 C 362.304688 -142.828125 381.753906 -95.109375 402.015625 -46.078125 C 405.941406 -37.585938 408.882812 -28.765625 410.84375 -19.609375 Z M 410.84375 -19.609375 "/></g></g></g></g></g><g transform="matrix(1, 0, 0, 1, 846, 522)"><g clip-path="url(#45e6f24521)"><g fill="#000000" fill-opacity="1"><g transform="translate(1.404048, 927.179592)"><g><path d="M 229.5 -249.78125 C 209.5 -228.6875 189.628906 -213.410156 169.890625 -203.953125 C 150.160156 -194.492188 132.1875 -189.085938 115.96875 -187.734375 C 99.75 -186.378906 85.828125 -188.40625 74.203125 -193.8125 C 62.578125 -199.21875 55.144531 -206.25 51.90625 -214.90625 C 45.414062 -230.582031 43.789062 -245.851562 47.03125 -260.71875 C 50.28125 -275.59375 56.632812 -289.378906 66.09375 -302.078125 C 75.550781 -314.785156 87.304688 -325.597656 101.359375 -334.515625 C 115.421875 -343.441406 130.15625 -349.796875 145.5625 -353.578125 C 160.96875 -357.359375 176.238281 -357.757812 191.375 -354.78125 C 206.519531 -351.8125 220.039062 -344.648438 231.9375 -333.296875 L 236.796875 -451.703125 C 236.796875 -458.734375 238.820312 -464.273438 242.875 -468.328125 C 246.9375 -472.378906 251.671875 -474.8125 257.078125 -475.625 C 262.484375 -476.4375 267.890625 -475.625 273.296875 -473.1875 C 278.703125 -470.757812 282.753906 -466.84375 285.453125 -461.4375 L 274.921875 -335.734375 L 356.015625 -387.640625 C 360.335938 -384.929688 364.390625 -381.820312 368.171875 -378.3125 C 371.960938 -374.800781 374.664062 -370.742188 376.28125 -366.140625 C 377.90625 -361.546875 378.039062 -356.273438 376.6875 -350.328125 C 375.332031 -344.378906 371.953125 -337.894531 366.546875 -330.875 L 278.96875 -279.78125 L 279.78125 -141.921875 C 279.78125 -131.109375 277.210938 -122.863281 272.078125 -117.1875 C 266.941406 -111.507812 261.265625 -108.265625 255.046875 -107.453125 C 248.828125 -106.640625 243.015625 -108.125 237.609375 -111.90625 C 232.203125 -115.695312 229.5 -121.914062 229.5 -130.5625 Z M 208.421875 -291.9375 C 199.222656 -302.757812 188.8125 -308.976562 177.1875 -310.59375 C 165.570312 -312.21875 153.953125 -311 142.328125 -306.9375 C 130.703125 -302.882812 120.289062 -296.9375 111.09375 -289.09375 C 101.90625 -281.257812 95.015625 -273.148438 90.421875 -264.765625 C 85.828125 -256.390625 84.742188 -248.820312 87.171875 -242.0625 C 89.609375 -235.3125 96.773438 -230.851562 108.671875 -228.6875 C 120.566406 -229.226562 132.863281 -232.472656 145.5625 -238.421875 C 158.269531 -244.367188 169.625 -250.988281 179.625 -258.28125 C 189.625 -265.582031 197.328125 -272.613281 202.734375 -279.375 C 208.140625 -286.132812 210.035156 -290.320312 208.421875 -291.9375 Z M 208.421875 -291.9375 "/></g></g></g></g></g></svg>